<?xml version="1.0" encoding="utf-8"?>
<!-- Generator: Adobe Illustrator 15.0.0, SVG Export Plug-In . SVG Version: 6.00 Build 0)  -->
<!DOCTYPE svg PUBLIC "-//W3C//DTD SVG 1.1//EN" "http://www.w3.org/Graphics/SVG/1.1/DTD/svg11.dtd">
<svg version="1.1" xmlns="http://www.w3.org/2000/svg" xmlns:xlink="http://www.w3.org/1999/xlink" x="0px" y="0px" width="300px"
	 height="200px" viewBox="0 0 300 200" enable-background="new 0 0 300 200" xml:space="preserve">
<g id="Ebene_1">
</g>
<g id="E">
</g>
<g id="EPS-Logo">
</g>
<g id="EPS-Logo_1_">
</g>
<g id="E_1_">
	<path fill="#71706F" d="M226.672,106.451L226.672,106.451H205.16c-2.392,0-4.338-1.906-4.338-4.292
		c0-2.387,1.946-4.488,4.338-4.488h32.75V81.516h-32.75c-11.43,0-20.73,9.318-20.73,20.721c0,11.401,9.301,20.72,20.73,20.72h21.22
		c2.393,0,4.34,1.898,4.34,4.284c0,2.388-1.947,4.145-4.34,4.145h-45.502c-3.862,7.375-7.619,13.697-15.244,16.857h61.038l0,0
		c11.238-0.162,20.432-9.672,20.432-20.974C247.104,115.969,237.91,106.613,226.672,106.451z"/>
	<g>
		<g>
			<path fill="none" stroke="#706F6F" stroke-width="4.5655" stroke-miterlimit="10" d="M119.351,184.972"/>
		</g>
	</g>
	<path fill="#71706F" d="M144.21,81.516c-18.232,0-33.082,14.938-33.082,33.293c0,0.217,0,0.702,0,0.702v68.553h16.506v-35.821
		h16.541c18.232,0,33.029-15.137,33.029-33.493C177.205,96.396,162.442,81.516,144.21,81.516z M144.21,131.386h-16.575V114.75
		c0-9.295,7.4-16.857,16.575-16.857c9.175,0,16.639,7.563,16.639,16.857C160.85,124.047,153.386,131.386,144.21,131.386z"/>
	<g>
		<g>
			<path fill="#C8036F" d="M58.872,148.243c-15.607,0-28.729-11.121-32.279-25.649c0,0-1.026-4.805-1.026-7.968
				s0.972-8.017,0.972-8.017c3.576-14.493,16.681-25.285,32.262-25.285c18.326,0,33.363,14.897,33.363,33.223v8.06H43.477
				c2.875,5.618,8.689,8.779,15.396,8.779h43.769l0.06-47.523c0-7.085-5.797-12.882-12.882-12.882H27.784
				c-7.085,0-12.883,5.622-12.883,12.707v62.035c0,7.085,5.797,13.058,12.883,13.058h62.034c6.359,0,11.663-4.565,12.688-10.536
				H58.872z"/>
			<path fill="#C8036F" d="M58.801,97.094c-6.679,0-12.489,4.09-15.375,9.357h30.752C71.291,101.184,65.481,97.094,58.801,97.094z"
				/>
		</g>
		<path fill="#C8036F" d="M86.896,50.807c0-15.141-12.583-27.414-28.104-27.414c-15.264,0-27.679,11.873-28.086,26.666
			c-0.007,0.063-0.001,0.123-0.001,0.188v8.239c0,0.985,0.802,1.959,1.813,1.959h10.339c1.01,0,1.896-0.974,1.896-1.959v-7.678l0,0
			c0-7.561,6.297-13.711,14.048-13.711c7.75,0,14.048,6.15,14.048,13.711v7.678c0,0.985,0.819,1.959,1.83,1.959h10.34
			c1.01,0,1.878-0.974,1.878-1.959V50.807L86.896,50.807z"/>
	</g>
	<g>
		<path fill="#71706F" d="M162.729,169.666l-1.494,8.464c-0.747,4.277-3.55,6.236-7.349,6.236c-3.219,0-5.709-2.098-4.983-6.23
			l1.495-8.47h2.306l-1.496,8.464c-0.456,2.637,0.728,4.14,2.969,4.14c2.305,0,4.276-1.371,4.755-4.134l1.494-8.47H162.729z
			 M153.678,167.017c0,0.705,0.54,1.038,1.121,1.038c0.727,0,1.517-0.52,1.517-1.495c0-0.685-0.458-1.037-1.06-1.037
			C154.509,165.522,153.678,165.999,153.678,167.017z M158.661,166.996c0,0.726,0.56,1.059,1.162,1.059
			c0.644,0,1.494-0.52,1.494-1.474c0-0.686-0.498-1.059-1.059-1.059C159.512,165.522,158.661,165.999,158.661,166.996z"/>
		<path fill="#71706F" d="M168.299,169.666l-1.037,5.848c0.893-1.203,2.677-1.84,3.923-1.84c2.574,0,4.359,1.509,4.359,4.311
			c0,3.966-2.762,6.35-6.29,6.35c-1.37,0-2.533-0.509-3.238-1.795l-0.395,1.525h-2.015l2.554-14.398H168.299z M166.68,179.534
			c-0.082,1.704,1.017,2.804,2.615,2.804c2.014,0,3.965-1.558,4.09-3.924c0.083-1.724-1.037-2.74-2.594-2.74
			C168.797,175.674,166.804,177.272,166.68,179.534z"/>
		<path fill="#71706F" d="M179.742,179.85c-0.083,1.406,1.017,2.553,2.887,2.553c1.037,0,2.406-0.405,3.154-1.111l1.163,1.344
			c-1.267,1.162-3.135,1.74-4.712,1.74c-2.948,0-4.672-1.766-4.672-4.465c0-3.592,2.823-6.269,6.436-6.269
			c3.302,0,5.17,1.994,4.049,6.208H179.742z M186.302,178.096c0.166-1.757-0.87-2.471-2.594-2.471c-1.557,0-2.99,0.714-3.612,2.471
			H186.302z"/>
		<path fill="#71706F" d="M193.76,173.881l-0.104,1.354c0.997-1.31,2.2-1.577,3.301-1.577c0.997,0,1.89,0.354,2.367,0.873
			l-1.288,1.868c-0.455-0.413-0.913-0.621-1.701-0.621c-1.475,0-2.928,0.884-3.26,2.774l-0.976,5.513h-2.139l1.806-10.184H193.76z"
			/>
		<path fill="#71706F" d="M209.623,173.881l1.079,8.054l3.903-8.054h2.387l-5.354,10.184h-2.513l-1.018-6.719l-1.64,3.339
			l-1.785,3.38h-2.491l-1.807-10.184h2.408l1.06,8.054l3.923-8.054H209.623z"/>
		<path fill="#71706F" d="M219.739,179.85c-0.083,1.406,1.018,2.553,2.886,2.553c1.038,0,2.408-0.405,3.154-1.111l1.163,1.344
			c-1.266,1.162-3.135,1.74-4.712,1.74c-2.948,0-4.671-1.766-4.671-4.465c0-3.592,2.823-6.269,6.436-6.269
			c3.301,0,5.17,1.994,4.049,6.208H219.739z M226.3,178.096c0.165-1.757-0.872-2.471-2.596-2.471c-1.557,0-2.989,0.714-3.612,2.471
			H226.3z"/>
		<path fill="#71706F" d="M233.901,173.881l-1.806,10.184h-2.138l1.806-10.184H233.901z M232.013,171.106
			c0,0.726,0.54,1.101,1.121,1.101c0.831,0,1.599-0.541,1.599-1.558c0-0.686-0.52-1.08-1.08-1.08
			C232.886,169.569,232.013,170.068,232.013,171.106z"/>
		<path fill="#71706F" d="M243.391,176.399c-0.664-0.747-1.515-0.955-2.532-0.955c-1.412,0-2.408,0.478-2.408,1.371
			c0,0.747,0.81,1.059,2.014,1.162c1.868,0.166,4.256,0.789,3.758,3.426c-0.354,1.91-2.263,3.031-4.921,3.031
			c-1.66,0-3.259-0.373-4.339-1.89l1.391-1.515c0.769,1.058,2.118,1.495,3.322,1.515c1.017,0,2.222-0.374,2.409-1.328
			c0.187-0.913-0.623-1.267-2.119-1.412c-1.744-0.166-3.652-0.809-3.652-2.739c0-2.555,2.76-3.447,4.837-3.447
			c1.577,0,2.739,0.353,3.694,1.371L243.391,176.399z"/>
		<path fill="#71706F" d="M250.141,173.881l-0.975,5.484c-0.313,1.744,0.477,2.95,2.262,2.95c1.682,0,3.114-1.394,3.404-3.097
			l0.935-5.338h2.139l-1.806,10.184h-1.931l0.145-1.476c-1.204,1.142-2.388,1.681-3.819,1.681c-2.513,0-4.007-1.801-3.468-4.895
			l0.976-5.494H250.141z"/>
		<path fill="#71706F" d="M267.294,184.064l0.976-5.451c0.311-1.765-0.29-2.934-2.242-2.934c-1.702,0-3.136,1.369-3.426,3.051
			l-0.935,5.334h-2.138l1.807-10.184h1.951l-0.146,1.487c1.185-1.1,2.408-1.642,3.737-1.642c2.491,0,4.111,1.732,3.551,4.868
			l-0.976,5.47H267.294z"/>
		<path fill="#71706F" d="M274.541,185.47c-0.145,1.405,0.934,1.974,2.741,1.974c1.578,0,3.281-0.882,3.676-3.124l0.311-1.748
			c-0.936,1.308-2.637,1.824-3.902,1.824c-2.617,0-4.443-1.558-4.443-4.383c0-4.025,2.989-6.353,6.373-6.353
			c1.433,0,2.72,0.68,3.177,1.843l0.353-1.622h2.076l-1.786,10.487c-0.663,3.883-3.55,5.087-6.186,5.087
			c-3.156,0-4.899-1.526-4.465-3.985H274.541z M275.144,179.599c0,1.742,1.143,2.802,2.783,2.802c4.421,0,5.604-6.789,1.182-6.789
			C277.011,175.611,275.144,177.168,275.144,179.599z"/>
	</g>
</g>
</svg>
