<?xml version="1.0" encoding="utf-8"?>
<!DOCTYPE svg PUBLIC "-//W3C//DTD SVG 1.1//EN" "http://www.w3.org/Graphics/SVG/1.1/DTD/svg11.dtd">
<svg xmlns="http://www.w3.org/2000/svg" xmlns:xlink="http://www.w3.org/1999/xlink" width="60" height="24" id="svgcontent"><rect id="backgroundrect" width="100%" height="100%" x="0" y="0" fill="none" stroke="none"></rect>
      <title>GooglePay_AcceptanceMark_RGB_60x24pt</title>
      
      
      
      
      
      
      
    <g class="currentLayer" style="pointer-events:all"><title>Layer 1</title><path d="M28.58971460372696,11.760222498323467 v7 H26.34971460372696 V1.4202224983234668 h5.92 a5.39,5.39 0 0 1 3.84,1.51 A5,5 0 0 1 36.35971460372696,10.000222498323467 l-0.25,0.26 a5.35,5.35 0 0 1 -3.84,1.48 zm0,-8.2 V9.620222498323468 H32.31971460372696 a2.93,2.93 0 0 0 2.21,-0.9 A3,3 0 0 0 32.31971460372696,3.5602224983234674 z" fill="#5f6368" id="svg_1" class=""></path><path d="M42.84971460372696,6.5202224983234665 a5.5600000000000005,5.5600000000000005 0 0 1 3.91,1.32 a4.71,4.71 0 0 1 1.4300000000000002,3.63 v7.32 H46.04971460372696 V17.140222498323467 H45.91971460372696 a4.28,4.28 0 0 1 -3.6900000000000004,2 A4.83,4.83 0 0 1 38.97971460372696,18.000222498323467 a3.74,3.74 0 0 1 -1.32,-2.92 a3.52,3.52 0 0 1 1.3900000000000001,-2.93 a5.87,5.87 0 0 1 3.73,-1.09 a6.65,6.65 0 0 1 3.27,0.7200000000000002 v-0.51 a2.5,2.5 0 0 0 -0.92,-2 a3.17,3.17 0 0 0 -2.16,-0.81 a3.4,3.4 0 0 0 -2.95,1.57 l-2,-1.23 A5.45,5.45 0 0 1 42.84971460372696,6.5202224983234665 zM39.91971460372696,15.150222498323467 a1.82,1.82 0 0 0 0.7400000000000002,1.46 a2.74,2.74 0 0 0 1.7400000000000002,0.5800000000000002 a3.58,3.58 0 0 0 2.51,-1 a3.26,3.26 0 0 0 1.11,-2.45 a4.54,4.54 0 0 0 -2.91,-0.8300000000000002 a3.74,3.74 0 0 0 -2.27,0.6600000000000003 A2,2 0 0 0 39.91971460372696,15.150222498323467 z" fill="#5f6368" id="svg_2" class=""></path><path d="M60.43971460372697,6.900222498323468 L52.98971460372696,24.000222498323467 H50.67971460372696 l2.77,-6 L48.54971460372696,6.910222498323467 h2.43 l3.54,8.54 h0 l3.44,-8.54 z" fill="#5f6368" id="svg_3" class=""></path><path d="M19.569714603726958,10.240222498323467 a12.54,12.54 0 0 0 -0.17,-2 H9.97971460372696 v3.84 h5.39 a4.61,4.61 0 0 1 -2,3 v2.49 h3.22 A9.75,9.75 0 0 0 19.569714603726958,10.240222498323467 z" fill="#4285f4" id="svg_4" class=""></path><path d="M9.97971460372696,20.000222498323467 a9.54,9.54 0 0 0 6.62,-2.41 l-3.22,-2.49 a6,6 0 0 1 -3.4,0.9500000000000002 a6,6 0 0 1 -5.6,-4.12 H1.069714603726959 V14.500222498323467 A10,10 0 0 0 9.97971460372696,20.000222498323467 z" fill="#34a853" id="svg_5" class=""></path><path d="M4.379714603726959,11.920222498323467 a6,6 0 0 1 0,-3.8200000000000003 V5.530222498323467 H1.069714603726959 a10,10 0 0 0 0,9 z" fill="#fbbc04" id="svg_6" class=""></path><path d="M9.97971460372696,4.000222498323467 a5.44,5.44 0 0 1 3.83,1.5 h0 l2.85,-2.85 A9.58,9.58 0 0 0 9.97971460372696,0.0002224983234668799 a10,10 0 0 0 -8.91,5.5 L4.379714603726959,8.100222498323467 A6,6 0 0 1 9.97971460372696,4.000222498323467 z" fill="#ea4335" id="svg_7" class=""></path></g></svg>