<svg xmlns="http://www.w3.org/2000/svg" viewBox="0 0 1104.1 432.7"><path d="M1.6 1.2h204.2v204.2H1.6V1.2z" fill="#f05124"/><path d="M227.1 1.2h204.2v204.2H227.1V1.2z" fill="#7ebb42"/><path d="M1.6 226.7h204.2V431H1.6V226.7z" fill="#32a0da"/><path d="M227.1 226.7h204.2V431H227.1V226.7z" fill="#fdb813"/><path d="M599.7 241.7v96.8h-33.1V82.4h77.5c30.2 0 53.6 6.7 70.2 20s24.9 32.2 24.9 56.4c0 24.3-9.2 44.2-27.6 59.7-18.4 15.5-43.3 23.2-74.7 23.2h-37.2zm0-132.2v105h34.6c22.8 0 40.2-4.7 52.2-14.2s18-22.8 18-40.1c0-33.8-22-50.7-66.1-50.7h-38.7zm299.4 229h-32.3v-28.6h-.8c-14 21.9-34.7 32.9-62 32.9-20.1 0-35.8-4.8-47.1-14.5-11.3-9.6-17-22.4-17-38.4 0-34.2 22.2-54.1 66.5-59.7l60.4-7.7c0-31.1-13.8-46.6-41.5-46.6-24.3 0-46.2 7.5-65.7 22.5v-30c19.8-11.4 42.6-17.1 68.5-17.1 47.4 0 71 22.7 71 68.2v119zM866.8 246l-48.6 6.1c-15 1.9-26.2 5.3-33.8 10.1-7.6 4.8-11.4 13.4-11.4 25.6 0 8.9 3.5 16.2 10.5 21.9 7 5.7 16.4 8.5 28 8.5 16 0 29.2-5.1 39.7-15.3 10.4-10.2 15.6-23.1 15.6-38.7V246zm233.3-90.4l-92.7 212.2c-16.5 37.9-39.7 56.8-69.7 56.8-8.4 0-15.4-.8-21.1-2.3V396c7 2.1 13.3 3.2 19.1 3.2 16.3 0 28.5-8.8 36.6-26.4l16.1-34.7-78.7-182.5h35.8l54.5 140.7c.7 1.8 2 6.4 4.1 13.9h1.2c.7-2.9 2-7.4 3.9-13.6l57.3-141.1h33.6v.1z" fill="#737474"/></svg>